<svg width="30" height="21" viewBox="0 0 30 21" fill="none" xmlns="http://www.w3.org/2000/svg">
<path d="M30.0001 18.4806C30.0001 19.3966 29.2575 20.1392 28.3414 20.1392H11.7544C10.8384 20.1392 10.0957 19.3966 10.0957 18.4806C10.0957 17.5645 10.8384 16.8219 11.7544 16.8219H28.3414C29.2575 16.8219 30.0001 17.5645 30.0001 18.4806ZM30.0001 10.1871C30.0001 11.1031 29.2575 11.8458 28.3414 11.8458H1.80225C0.88618 11.8458 0.143555 11.1031 0.143555 10.1871C0.143555 9.27098 0.88618 8.52836 1.80225 8.52836H28.3414C29.2575 8.52836 30.0001 9.27098 30.0001 10.1871ZM30.0001 1.89356C30.0001 2.80964 29.2575 3.55226 28.3414 3.55226H11.7544C10.8384 3.55226 10.0957 2.80964 10.0957 1.89356C10.0957 0.977488 10.8384 0.234863 11.7544 0.234863H28.3414C29.2575 0.234863 30.0001 0.977488 30.0001 1.89356Z" fill="white"/>
</svg>
