<svg width="144" height="48" viewBox="0 0 144 48" fill="none" xmlns="http://www.w3.org/2000/svg">
<g clip-path="url(#clip0_149_915)">
<path d="M16.3014 6C16.1891 6.92705 16.1329 7.71433 16.0196 8.47309C15.6541 11.0869 15.9073 13.5876 17.0885 16.0045C18.6923 19.2364 20.2113 22.4968 21.7304 25.7562C22.6584 27.7519 23.5026 29.8029 23.9528 31.9669C24.1499 33.0071 24.0651 33.9627 23.5588 34.8898C22.0397 37.5311 20.0705 39.7513 17.7072 41.6625C17.4825 41.8308 17.1723 41.8869 16.9191 42C16.9191 41.7195 16.8905 41.4095 16.9476 41.1566C17.257 39.9206 17.651 38.6835 17.9318 37.4189C18.2973 35.8168 18.1288 34.2156 17.454 32.6981C16.2167 29.9721 14.9222 27.2461 13.6563 24.5201C12.4466 21.9348 11.2083 19.3771 10.4488 16.6226C10.0547 15.1897 9.77395 13.7283 10.4488 12.323C11.6585 9.82135 13.5155 7.88263 15.7655 6.28049C15.8512 6.1683 15.992 6.14072 16.3014 6Z" fill="url(#paint0_linear_149_915)"/>
<path d="M4.90838 9.8784C4.90838 10.1598 4.93693 10.3557 4.90838 10.525C4.6828 12.1271 4.48578 13.7283 4.79511 15.3304C4.93598 16.0045 5.1606 16.6796 5.44233 17.3262C6.70822 20.0522 8.03026 22.7221 9.24 25.4481C9.91482 26.9941 10.4212 28.6238 10.9561 30.2536C11.2093 31.0123 11.0684 31.7996 10.6743 32.5298C9.49317 34.6093 7.91795 36.3521 6.061 37.8696C5.89253 38.0104 5.66696 38.094 5.46994 38.2072C5.41378 38.1796 5.38523 38.1511 5.32907 38.1226C5.35763 37.8696 5.38523 37.6167 5.44138 37.3923C5.69456 36.4082 5.97629 35.4251 6.20091 34.441C6.45409 33.2049 6.34178 31.9964 5.83543 30.844C4.68185 28.3424 3.52828 25.8693 2.37565 23.3962C1.47526 21.4575 0.603412 19.5464 0.124659 17.4945C-0.15612 16.286 0.0399496 15.1897 0.659568 14.1504C1.61612 12.5768 2.85345 11.2837 4.31636 10.1874C4.45818 10.1028 4.6552 10.0191 4.90838 9.8784Z" fill="url(#paint1_linear_149_915)"/>
<path d="M27.9484 9.9906C27.8923 10.4689 27.8361 10.9738 27.7799 11.452C27.5829 12.8573 27.4706 14.3187 27.8646 15.6955C28.174 16.7633 28.6518 17.8035 29.102 18.8152C30.424 21.738 31.8308 24.6323 33.0967 27.5551C33.5183 28.5383 33.7715 29.607 33.9685 30.6748C34.0532 31.1806 33.9685 31.7986 33.7153 32.2769C32.5903 34.5256 30.9018 36.3236 28.9326 37.8972C28.7917 38.0094 28.5947 38.0655 28.2853 38.2348C28.3415 37.8696 28.3415 37.6443 28.3977 37.4199C28.6784 36.2399 28.9887 35.0875 29.2419 33.9066C29.4665 32.8103 29.2419 31.7425 28.7641 30.7309C27.6105 28.2293 26.4293 25.7286 25.2758 23.227C24.4039 21.3444 23.5311 19.4332 23.0819 17.3813C22.8287 16.1728 23.0257 15.1051 23.6729 14.0649C24.6009 12.5188 25.8392 11.2542 27.2736 10.1865C27.4421 10.0743 27.6115 9.98965 27.7799 9.90503C27.8637 9.96303 27.8923 9.9906 27.9484 9.9906Z" fill="url(#paint2_linear_149_915)"/>
</g>
<path d="M43.056 23.736C43.056 30.456 47.728 35.16 54.352 35.16C59.696 35.16 63.728 32.184 65.008 27.32H58.992C58.064 29.24 56.368 30.2 54.288 30.2C50.928 30.2 48.624 27.704 48.624 23.736C48.624 19.768 50.928 17.272 54.288 17.272C56.368 17.272 58.064 18.232 58.992 20.152H65.008C63.728 15.288 59.696 12.28 54.352 12.28C47.728 12.28 43.056 17.016 43.056 23.736ZM73.831 22.584V16.952H76.807C78.983 16.952 79.911 18.04 79.911 19.768C79.911 21.496 78.983 22.584 76.807 22.584H73.831ZM85.479 19.768C85.479 15.64 82.727 12.536 77.223 12.536H68.359V35H73.831V26.936H77.223C82.951 26.936 85.479 23.48 85.479 19.768ZM103.368 12.728V29.304L92.3918 12.728H88.7438V35H92.3918V18.392L103.368 35H107.016V12.728H103.368ZM111.806 35H115.454V25.272H122.814V22.296H115.454V15.736H124.894V12.76H111.806V35ZM127.123 15.736H133.075V35H136.723V15.736H142.643V12.76H127.123V15.736Z" fill="url(#paint3_linear_149_915)"/>
<defs>
<linearGradient id="paint0_linear_149_915" x1="24.0588" y1="68.2273" x2="-4.12997" y2="60.9587" gradientUnits="userSpaceOnUse">
<stop stop-color="#0047FF"/>
<stop offset="1" stop-color="#FF0077"/>
</linearGradient>
<linearGradient id="paint1_linear_149_915" x1="11.0895" y1="58.8457" x2="-11.1975" y2="53.0678" gradientUnits="userSpaceOnUse">
<stop stop-color="#0047FF"/>
<stop offset="1" stop-color="#FF0077"/>
</linearGradient>
<linearGradient id="paint2_linear_149_915" x1="34.0066" y1="58.8739" x2="11.8228" y2="53.1535" gradientUnits="userSpaceOnUse">
<stop stop-color="#0047FF"/>
<stop offset="1" stop-color="#FF0077"/>
</linearGradient>
<linearGradient id="paint3_linear_149_915" x1="144.058" y1="82.9697" x2="70.6698" y2="-20.3619" gradientUnits="userSpaceOnUse">
<stop stop-color="#0047FF"/>
<stop offset="1" stop-color="#FF0077"/>
</linearGradient>
<clipPath id="clip0_149_915">
<rect width="34" height="36" fill="white" transform="translate(0 6)"/>
</clipPath>
</defs>
</svg>
