<svg width="119" height="63" viewBox="0 0 119 63" fill="none" xmlns="http://www.w3.org/2000/svg">
<path d="M40.9026 24.2779C43.1304 22.0501 43.1304 18.4382 40.9026 16.2104C38.6748 13.9826 35.0629 13.9826 32.8351 16.2104C30.6073 18.4382 30.6073 22.0501 32.8351 24.2779C35.0628 26.5057 38.6748 26.5057 40.9026 24.2779Z" fill="#FD287E"/>
<path d="M62.5262 0.845215V20.0558C62.5262 23.0705 60.0745 25.8817 57.0597 25.8817C53.7591 25.8817 51.1514 23.1398 51.1514 19.8392L51.2554 11.7391H48.167V19.9041C48.167 24.8075 52.1564 28.7969 57.0597 28.7969C61.6772 28.7969 65.437 25.0371 65.437 20.4196V0.845215H62.5262Z" fill="white"/>
<path d="M72.2248 11.5962H69.2144V28.8705H72.2248V11.5962Z" fill="white"/>
<path d="M88.7584 28.8098H76.2314V11.6351H88.7584C93.5664 11.6351 97.4778 15.5465 97.4778 20.3546C97.4778 25.1626 93.5664 28.8098 88.7584 28.8098ZM79.1423 25.899H88.7584C91.9637 25.899 94.567 23.5556 94.567 20.3546C94.567 17.1492 91.9594 14.5416 88.7584 14.5416H79.1423V25.899Z" fill="white"/>
<path d="M61.8938 52.6725H65.3071L56.6916 35.5758L48.1367 52.6725H51.524L56.6916 42.3504L61.8938 52.6725Z" fill="white"/>
<path d="M56.6915 42.3503L51.5239 52.6725H61.8937L56.6915 42.3503Z" fill="#FD287E"/>
<path d="M67.8887 52.7115V35.6147H70.7562L77.8166 49.3415L84.7342 35.6494H87.6753V52.8544H84.8425V41.9215L79.5753 52.7115H76.1706L70.7952 42.1034V52.7505C70.7908 52.7461 67.9233 52.7461 67.8887 52.7115Z" fill="white"/>
<path d="M94.5194 38.4086H108.818V35.6147H91.6519V52.7115H108.818V49.805H94.5194V38.4086Z" fill="white"/>
<path d="M108.822 38.4086H94.5195V49.8049H108.822V38.4086Z" fill="#FD287E"/>
<path d="M46.6122 52.7029L45.1048 49.7921L41.436 42.7099H31.2914V45.5774H39.6773L41.8128 49.7921H32.4956C29.4808 49.7921 26.6696 47.3404 26.6696 44.3256C26.6696 41.025 29.4115 38.4174 32.7122 38.4174L44.9748 38.4953L44.9835 38.517L44.9922 38.4953L46.4173 35.4675L46.3999 35.4286L42.155 27.0123C44.2255 25.44 45.5596 22.958 45.5596 20.1598C45.5596 15.408 41.7088 11.5573 36.9571 11.5573C32.2054 11.5573 28.3503 15.4124 28.3503 20.1641C28.3503 24.9158 32.201 28.7666 36.9528 28.7666C37.9057 28.7666 38.8197 28.6107 39.6773 28.3248L43.3765 35.4329H32.6515C27.7482 35.4329 23.7588 39.4223 23.7588 44.3256C23.7588 48.9431 27.5186 52.7029 32.1361 52.7029H43.2899L48.2495 62.4966H51.6888L46.6122 52.7029ZM36.8705 25.9467C33.7214 25.9467 31.1658 23.3911 31.1658 20.2421C31.1658 17.093 33.7214 14.5374 36.8705 14.5374C40.0195 14.5374 42.5752 17.093 42.5752 20.2421C42.5752 21.8621 41.8994 23.3261 40.8122 24.3614L38.6724 20.1251H35.4107L38.3389 25.7518C37.8711 25.8818 37.3816 25.9467 36.8705 25.9467Z" fill="white"/>
<path d="M24.5514 20.1683C23.6417 19.341 22.4246 18.6566 21.0904 18.6566H13.9953H13.1073C11.8642 18.6566 10.9892 17.7946 10.9892 16.5601C10.9892 15.3256 12.0028 14.4637 13.246 14.4637H22.2556H24.5514L24.5167 11.6351H13.1896C10.4088 11.6351 8.18668 13.697 8.18668 16.4562C8.18668 17.3095 8.27331 18.1715 8.65449 18.8775H8.64149C9.49481 20.4369 11.3141 21.4591 13.2243 21.4591H20.3671L21.2334 21.4938C22.4939 21.4938 23.3559 22.516 23.3559 23.7549C23.3559 24.9937 22.3293 25.86 21.0645 25.86H0V28.8791H21.0904C23.9103 28.8791 26.2017 26.6267 26.2017 23.8632C26.2017 22.3991 25.565 21.0866 24.5514 20.1683Z" fill="white"/>
<path d="M118.962 42.6753H100.861V45.5428H118.962V42.6753Z" fill="white"/>
</svg>
