<svg width="80" height="80" viewBox="0 0 80 80" fill="none" xmlns="http://www.w3.org/2000/svg">
<g clip-path="url(#clip0_149_949)">
<path d="M40 80C62.0914 80 80 62.0914 80 40C80 17.9086 62.0914 0 40 0C17.9086 0 0 17.9086 0 40C0 62.0914 17.9086 80 40 80Z" fill="url(#paint0_linear_149_949)"/>
<path d="M53.075 26.3075C51.135 21.3775 46.27 20.9325 40.605 22.0325L38.5875 15L34.3075 16.2275L36.2725 23.0775C35.1475 23.3975 34.0025 23.7525 32.865 24.1025L30.89 17.2075L26.6125 18.4325L28.625 25.465C27.705 25.75 26.8 26.03 25.9125 26.285L25.905 26.26L20 27.9525L21.3125 32.5275C21.3125 32.5275 24.4575 31.5575 24.42 31.6325C26.155 31.135 27.0075 31.98 27.42 32.8025L29.72 40.8125C29.8375 40.78 29.995 40.74 30.18 40.7125L29.7275 40.8425L32.945 52.0675C33.025 52.635 32.955 53.5975 31.745 53.9475C31.8125 53.98 28.63 54.8375 28.63 54.8375L29.2475 60.195L34.8175 58.595C35.855 58.3025 36.88 58.0275 37.8825 57.745L39.925 64.8575L44.2 63.6325L42.1825 56.595C43.3292 56.2907 44.4726 55.974 45.6125 55.645L47.6175 62.6525L51.9 61.425L49.865 54.325C56.9425 51.8475 61.46 48.59 60.1475 41.65C59.0925 36.065 55.8375 34.37 51.47 34.56C53.59 32.585 54.5025 29.915 53.075 26.31V26.3075ZM51.45 43.2325C52.975 48.55 43.7 50.555 40.8 51.39L38.0975 41.965C40.9975 41.1325 49.8575 37.69 51.4475 43.235L51.45 43.2325ZM45.645 30.5075C47.03 35.345 39.2775 36.9575 36.86 37.65L34.41 29.1025C36.825 28.41 44.1975 25.465 45.645 30.51V30.5075Z" fill="#F5F1F9"/>
</g>
<defs>
<linearGradient id="paint0_linear_149_949" x1="80.0455" y1="138.283" x2="-39.2506" y2="59.2378" gradientUnits="userSpaceOnUse">
<stop offset="0.354167" stop-color="#EF04B7"/>
<stop offset="1" stop-color="#35C2E7"/>
</linearGradient>
<clipPath id="clip0_149_949">
<rect width="80" height="80" fill="white"/>
</clipPath>
</defs>
</svg>
