<svg width="12" height="12" viewBox="0 0 12 12" fill="none" xmlns="http://www.w3.org/2000/svg">
<path d="M1.19995 1.79995C1.19995 1.64082 1.26317 1.48821 1.37569 1.37569C1.48821 1.26317 1.64082 1.19995 1.79995 1.19995H3.09175C3.23377 1.20002 3.37117 1.25046 3.4795 1.34231C3.58782 1.43415 3.66006 1.56145 3.68335 1.70155L4.12735 4.36255C4.14857 4.48928 4.12854 4.61948 4.07021 4.73397C4.01188 4.84846 3.91834 4.94121 3.80335 4.99855L2.87455 5.46235C3.20762 6.28774 3.70365 7.03752 4.33302 7.66689C4.96238 8.29625 5.71216 8.79229 6.53755 9.12535L7.00195 8.19655C7.05926 8.08167 7.15191 7.98821 7.26628 7.92989C7.38065 7.87157 7.51071 7.85147 7.63735 7.87255L10.2984 8.31655C10.4385 8.33984 10.5657 8.41208 10.6576 8.5204C10.7494 8.62873 10.7999 8.76613 10.8 8.90815V10.2C10.8 10.3591 10.7367 10.5117 10.6242 10.6242C10.5117 10.7367 10.3591 10.8 10.2 10.8H8.99995C4.69195 10.8 1.19995 7.30795 1.19995 2.99995V1.79995Z" fill="#191617"/>
<path d="M10.0241 1.97596C10.1366 2.08848 10.1998 2.24107 10.1998 2.40016C10.1998 2.55926 10.1366 2.71185 10.0241 2.82436L9.2483 3.60016L10.0241 4.37596C10.1334 4.48913 10.1939 4.64069 10.1925 4.79801C10.1911 4.95532 10.128 5.10581 10.0168 5.21706C9.90555 5.3283 9.75506 5.3914 9.59774 5.39277C9.44042 5.39414 9.28886 5.33366 9.1757 5.22436L8.3999 4.44856L7.6241 5.22436C7.56875 5.28167 7.50255 5.32738 7.42934 5.35883C7.35614 5.39027 7.27741 5.40682 7.19774 5.40751C7.11808 5.40821 7.03907 5.39303 6.96533 5.36286C6.89159 5.33269 6.8246 5.28814 6.76827 5.2318C6.71193 5.17547 6.66738 5.10847 6.63721 5.03474C6.60704 4.961 6.59186 4.88199 6.59255 4.80232C6.59324 4.72266 6.6098 4.64392 6.64124 4.57072C6.67269 4.49752 6.7184 4.43131 6.7757 4.37596L7.5515 3.60016L6.7757 2.82436C6.66641 2.7112 6.60593 2.55964 6.6073 2.40232C6.60867 2.24501 6.67177 2.09452 6.78301 1.98327C6.89426 1.87203 7.04474 1.80893 7.20206 1.80756C7.35938 1.80619 7.51094 1.86667 7.6241 1.97596L8.3999 2.75176L9.1757 1.97596C9.28822 1.86348 9.4408 1.80029 9.5999 1.80029C9.759 1.80029 9.91158 1.86348 10.0241 1.97596Z" fill="#191617"/>
</svg>
