<svg width="8" height="13" viewBox="0 0 8 13" fill="none" xmlns="http://www.w3.org/2000/svg">
<path fill-rule="evenodd" clip-rule="evenodd" d="M7.43776 6.88246C7.68692 6.26609 7.23326 5.59339 6.56844 5.59339C6.05058 5.59339 5.63077 5.17358 5.63077 4.65573V3.75047C5.63077 3.24182 6.04797 3.28974 6.56201 3.28974C7.07631 3.28974 7.49324 2.87281 7.49324 2.3585V2.13791C7.49324 1.50177 6.97755 0.986084 6.34141 0.986084H5.63077C4.88984 0.986084 4.17925 1.27733 3.65533 1.79575C3.13141 2.31418 2.83707 3.01731 2.83707 3.75047V4.66216C2.83707 5.17646 2.42015 5.59339 1.90584 5.59339C1.39154 5.59339 0.974609 6.01031 0.974609 6.52462V6.96581C0.974609 7.48011 1.39154 7.89704 1.90584 7.89704C2.42015 7.89704 2.83707 8.31397 2.83707 8.82827V11.5682C2.83707 12.3397 3.46247 12.9651 4.23392 12.9651C5.00538 12.9651 5.63077 12.3397 5.63077 11.5682V8.73129C5.63077 8.27055 6.00428 7.89704 6.46502 7.89704C6.80504 7.89704 7.11104 7.69068 7.23847 7.37545L7.43776 6.88246Z" fill="#191617"/>
</svg>
