<svg width="12" height="11" viewBox="0 0 12 11" fill="none" xmlns="http://www.w3.org/2000/svg">
<path d="M2.69824 5.42989C2.69824 4.80222 2.18941 4.29339 1.56174 4.29339C0.934073 4.29339 0.425245 4.80222 0.425245 5.42989V9.8167C0.425245 10.4444 0.934073 10.9532 1.56174 10.9532C2.18941 10.9532 2.69824 10.4444 2.69824 9.8167V5.42989Z" fill="#191617"/>
<path d="M2.31611 1.18541C2.09948 1.05417 1.84489 0.984135 1.58447 0.984131C1.41071 0.984128 1.23865 1.01532 1.07821 1.07591C0.917767 1.1365 0.772097 1.22529 0.649579 1.33719C0.52706 1.44908 0.43011 1.58186 0.364305 1.7279C0.298499 1.87393 0.265136 2.03034 0.266135 2.18812C0.267632 2.42459 0.346221 2.65536 0.491989 2.85132C0.637757 3.04728 0.844172 3.19964 1.0852 3.2892C1.32622 3.37875 1.59105 3.40148 1.84628 3.35451C2.10151 3.30755 2.33571 3.19299 2.51933 3.0253C2.70294 2.85761 2.82775 2.6443 2.87801 2.41227C2.92826 2.18024 2.90172 1.9399 2.80172 1.72155C2.70172 1.50321 2.53274 1.31665 2.31611 1.18541Z" fill="#191617"/>
<path d="M6.34684 4.49974C6.34684 4.38559 6.2543 4.29306 6.14015 4.29306H5.25139C4.64687 4.29306 4.15663 4.78275 4.15594 5.38726L4.1509 9.82948C4.15018 10.4573 4.65893 10.9666 5.28675 10.9666C5.91406 10.9666 6.4226 10.4581 6.4226 9.83077V7.67112C6.4226 6.80424 6.60444 5.96489 7.7864 5.96489C8.96836 5.96489 8.96836 6.96248 8.96836 7.73304V9.81636C8.96836 10.444 9.47719 10.9529 10.1049 10.9529C10.7325 10.9529 11.2414 10.444 11.2414 9.81636V7.2996C11.2414 5.50393 10.7792 4.12794 8.50618 4.12794C8.07296 4.11254 7.64327 4.20425 7.26297 4.39327C7.10088 4.47384 6.95036 4.57079 6.81402 4.68182C6.65421 4.81196 6.34684 4.70583 6.34684 4.49974Z" fill="#191617"/>
</svg>
