<svg width="12" height="12" viewBox="0 0 12 12" fill="none" xmlns="http://www.w3.org/2000/svg">
<path fill-rule="evenodd" clip-rule="evenodd" d="M1.0579 3.48844C0.856547 3.61429 0.690509 3.78928 0.575402 3.99696C0.460295 4.20464 0.399902 4.43819 0.399902 4.67564V10.2C0.399902 10.5713 0.547402 10.9274 0.809953 11.19C1.0725 11.4525 1.4286 11.6 1.7999 11.6H10.1999C10.5712 11.6 10.9273 11.4525 11.1899 11.19C11.4524 10.9274 11.5999 10.5713 11.5999 10.2V4.67564C11.5999 4.43819 11.5395 4.20464 11.4244 3.99696C11.3093 3.78928 11.1433 3.61429 10.9419 3.48844L6.7419 0.863438C6.5194 0.724372 6.26229 0.650635 5.9999 0.650635C5.73751 0.650635 5.48041 0.724372 5.2579 0.863438L1.0579 3.48844ZM2.8884 5.18454C2.81192 5.13352 2.72614 5.09806 2.63595 5.0802C2.54577 5.06233 2.45295 5.0624 2.36279 5.08041C2.27264 5.09841 2.18691 5.134 2.11051 5.18514C2.0341 5.23627 1.96852 5.30196 1.9175 5.37844C1.86648 5.45492 1.83103 5.5407 1.81316 5.63089C1.7953 5.72107 1.79537 5.81389 1.81337 5.90405C1.84974 6.08613 1.95694 6.2463 2.1114 6.34934L5.6114 8.68244C5.72643 8.75919 5.86162 8.80014 5.9999 8.80014C6.13819 8.80014 6.27337 8.75919 6.3884 8.68244L9.8884 6.34934C10.0429 6.2463 10.1501 6.08613 10.1864 5.90405C10.2228 5.72197 10.1853 5.5329 10.0823 5.37844C9.97926 5.22398 9.81909 5.11677 9.63701 5.08041C9.45493 5.04405 9.26586 5.0815 9.1114 5.18454L5.9999 7.25864L2.8884 5.18454Z" fill="#191617"/>
</svg>
