<svg width="12" height="10" viewBox="0 0 12 10" fill="none" xmlns="http://www.w3.org/2000/svg">
<path d="M11.0966 1.98487C11.0487 2.00682 10.9993 2.0286 10.9487 2.05006C10.6756 2.16572 10.531 1.79592 10.7279 1.57413C10.8964 1.38424 10.6757 1.2037 10.4399 1.29795C10.189 1.39829 9.92147 1.48838 9.67961 1.55487C9.48409 1.60862 9.28262 1.53383 9.12169 1.41047C8.73752 1.11596 8.25004 0.982422 7.72032 0.982422C6.47646 0.982422 5.60896 2.07235 5.60896 3.3467C5.60896 3.869 5.17988 4.29969 4.67334 4.17234C3.577 3.89672 2.53796 3.1788 1.6993 2.35699C1.28379 1.94984 0.579927 2.03534 0.581383 2.61708C0.581383 3.14617 0.870529 3.68009 1.23392 4.10933C1.41797 4.32674 1.28012 4.61003 1.01723 4.50033C0.855314 4.43277 0.70836 4.36302 0.602091 4.30531C0.591476 4.29955 0.57864 4.30728 0.57864 4.31936C0.57864 5.06786 0.918351 5.65564 1.45129 6.02627C1.66154 6.1725 1.87098 6.59339 1.61692 6.62575C1.4531 6.64662 1.12151 6.81798 1.21167 6.95634C1.33816 7.15042 1.51951 7.31984 1.73403 7.46414C2.34187 7.873 2.51951 8.75241 1.80097 8.89502C1.38087 8.97839 0.959023 9.02095 0.57864 9.02095C0.465357 9.02095 0.416101 9.18851 0.51662 9.24075C1.46685 9.73457 2.66903 9.96666 3.77975 9.96666C7.92154 9.96666 10.182 6.69545 10.182 3.64459C10.182 3.31118 10.3487 3.00216 10.5675 2.75066C10.7613 2.52801 10.9041 2.28257 11.0966 1.98487Z" fill="#191617"/>
</svg>
